<?xml version="1.0" standalone="no"?><!DOCTYPE svg PUBLIC "-//W3C//DTD SVG 1.1//EN" "http://www.w3.org/Graphics/SVG/1.1/DTD/svg11.dtd"><svg t="1724664031301" class="icon" viewBox="0 0 1243 1024" version="1.1" xmlns="http://www.w3.org/2000/svg" p-id="43169" xmlns:xlink="http://www.w3.org/1999/xlink" width="155.375" height="128"><path d="M365.714286 585.142857H219.428571v146.285714h146.285715v-146.285714z m219.428571 0h-146.285714v146.285714h146.285714v-146.285714z m219.428572 0h-146.285715v146.285714h146.285715v-146.285714z m219.428571 0h-146.285714v146.285714h146.285714v-146.285714z m-658.285714 219.428572H219.428571v146.285714h146.285715v-146.285714z m219.428571 0h-146.285714v146.285714h146.285714v-146.285714z m219.428572 0h-146.285715v146.285714h146.285715v-146.285714z m219.428571 0h-146.285714v146.285714h146.285714v-146.285714zM438.857143 256h109.714286V73.142857h-109.714286v182.857143z m36.571428-146.285714h36.571429v109.714285h-36.571429V109.714286z m109.714286 0h36.571429v146.285714h36.571428V109.714286h36.571429V73.142857h-109.714286v36.571429z m146.285714 146.285714h109.714286V219.428571h-73.142857V182.857143h73.142857V146.285714h-73.142857V109.714286h73.142857V73.142857h-109.714286v182.857143z m182.857143-182.857143h-36.571428v182.857143h109.714285V219.428571h-73.142857V73.142857zM365.714286 146.285714H329.142857V73.142857H292.571429v182.857143h36.571428V182.857143h36.571429v73.142857h36.571428V73.142857h-36.571428v73.142857z m768 841.142857V548.571429h73.142857v-146.285715h-73.142857V292.571429h-73.142857V0H182.857143v292.571429H109.714286v109.714285H36.571429v146.285715h73.142857v438.857142H0v36.571429h1243.428571v-36.571429h-109.714285zM219.428571 36.571429h804.571429v256H219.428571V36.571429zM146.285714 329.142857h950.857143v73.142857H146.285714V329.142857z m-73.142857 182.857143v-73.142857h1097.142857v73.142857H73.142857z m1024 475.428571H146.285714V548.571429h950.857143v438.857142z" fill="#333333" p-id="43170"></path><path d="M475.428571 914.285714h73.142858v-73.142857h-73.142858v73.142857z m0-219.428571h73.142858v-73.142857h-73.142858v73.142857z m-219.428571 219.428571h73.142857v-73.142857H256v73.142857zM1024 329.142857H219.428571v73.142857h804.571429V329.142857zM256 694.857143h73.142857v-73.142857H256v73.142857z m-109.714286-256v73.142857h950.857143v-73.142857H146.285714z m768 256h73.142857v-73.142857h-73.142857v73.142857z m0 219.428571h73.142857v-73.142857h-73.142857v73.142857z m-219.428571-219.428571h73.142857v-73.142857h-73.142857v73.142857z m0 219.428571h73.142857v-73.142857h-73.142857v73.142857z" fill="#7BADF2" p-id="43171"></path></svg>